<mxfile host="localhost" agent="Mozilla/5.0 (X11; Linux x86_64) AppleWebKit/537.36 (KHTML, like Gecko) Chrome/130.0.0.0 Safari/537.36" version="24.7.5">
  <diagram name="Page-1" id="Rq7tCnXguPNZXmSChnWb">
    <mxGraphModel dx="953" dy="566" grid="1" gridSize="10" guides="1" tooltips="1" connect="1" arrows="1" fold="1" page="1" pageScale="1" pageWidth="850" pageHeight="1100" math="0" shadow="0">
      <root>
        <mxCell id="0" />
        <mxCell id="1" parent="0" />
        <mxCell id="sBHPiRBSuybCHQU2eTQM-1" value="VPC" style="sketch=0;outlineConnect=0;gradientColor=none;html=1;whiteSpace=wrap;fontSize=12;fontStyle=0;shape=mxgraph.aws4.group;grIcon=mxgraph.aws4.group_vpc;strokeColor=#879196;fillColor=none;verticalAlign=top;align=left;spacingLeft=30;fontColor=#879196;dashed=0;" vertex="1" parent="1">
          <mxGeometry x="120" y="80" width="440" height="320" as="geometry" />
        </mxCell>
        <mxCell id="sBHPiRBSuybCHQU2eTQM-2" value="Availability zone" style="sketch=0;outlineConnect=0;gradientColor=none;html=1;whiteSpace=wrap;fontSize=12;fontStyle=0;shape=mxgraph.aws4.group;grIcon=mxgraph.aws4.group_availability_zone;strokeColor=#545B64;fillColor=none;verticalAlign=top;align=left;spacingLeft=30;fontColor=#545B64;dashed=1;" vertex="1" parent="1">
          <mxGeometry x="130" y="120" width="200" height="270" as="geometry" />
        </mxCell>
        <mxCell id="sBHPiRBSuybCHQU2eTQM-3" value="Availability zone" style="sketch=0;outlineConnect=0;gradientColor=none;html=1;whiteSpace=wrap;fontSize=12;fontStyle=0;shape=mxgraph.aws4.group;grIcon=mxgraph.aws4.group_availability_zone;strokeColor=#545B64;fillColor=none;verticalAlign=top;align=left;spacingLeft=30;fontColor=#545B64;dashed=1;" vertex="1" parent="1">
          <mxGeometry x="350" y="120" width="200" height="270" as="geometry" />
        </mxCell>
        <mxCell id="sBHPiRBSuybCHQU2eTQM-15" style="edgeStyle=orthogonalEdgeStyle;rounded=0;orthogonalLoop=1;jettySize=auto;html=1;exitX=0;exitY=0.5;exitDx=0;exitDy=0;" edge="1" parent="1" source="sBHPiRBSuybCHQU2eTQM-4" target="sBHPiRBSuybCHQU2eTQM-14">
          <mxGeometry relative="1" as="geometry" />
        </mxCell>
        <mxCell id="sBHPiRBSuybCHQU2eTQM-4" value="Scheduled scaling" style="points=[[0,0],[0.25,0],[0.5,0],[0.75,0],[1,0],[1,0.25],[1,0.5],[1,0.75],[1,1],[0.75,1],[0.5,1],[0.25,1],[0,1],[0,0.75],[0,0.5],[0,0.25]];outlineConnect=0;gradientColor=none;html=1;whiteSpace=wrap;fontSize=12;fontStyle=0;container=1;pointerEvents=0;collapsible=0;recursiveResize=0;shape=mxgraph.aws4.groupCenter;grIcon=mxgraph.aws4.group_auto_scaling_group;grStroke=1;strokeColor=#D86613;fillColor=none;verticalAlign=top;align=center;fontColor=#D86613;dashed=1;spacingTop=25;" vertex="1" parent="1">
          <mxGeometry x="140" y="160" width="400" height="220" as="geometry" />
        </mxCell>
        <mxCell id="sBHPiRBSuybCHQU2eTQM-5" value="EC2 Instance" style="sketch=0;points=[[0,0,0],[0.25,0,0],[0.5,0,0],[0.75,0,0],[1,0,0],[0,1,0],[0.25,1,0],[0.5,1,0],[0.75,1,0],[1,1,0],[0,0.25,0],[0,0.5,0],[0,0.75,0],[1,0.25,0],[1,0.5,0],[1,0.75,0]];outlineConnect=0;fontColor=#232F3E;fillColor=#ED7100;strokeColor=#ffffff;dashed=0;verticalLabelPosition=bottom;verticalAlign=top;align=center;html=1;fontSize=12;fontStyle=0;aspect=fixed;shape=mxgraph.aws4.resourceIcon;resIcon=mxgraph.aws4.auto_scaling2;" vertex="1" parent="sBHPiRBSuybCHQU2eTQM-4">
          <mxGeometry x="51" y="71" width="78" height="78" as="geometry" />
        </mxCell>
        <mxCell id="sBHPiRBSuybCHQU2eTQM-6" value="EC2 Instance" style="sketch=0;points=[[0,0,0],[0.25,0,0],[0.5,0,0],[0.75,0,0],[1,0,0],[0,1,0],[0.25,1,0],[0.5,1,0],[0.75,1,0],[1,1,0],[0,0.25,0],[0,0.5,0],[0,0.75,0],[1,0.25,0],[1,0.5,0],[1,0.75,0]];outlineConnect=0;fontColor=#232F3E;fillColor=#ED7100;strokeColor=#ffffff;dashed=0;verticalLabelPosition=bottom;verticalAlign=top;align=center;html=1;fontSize=12;fontStyle=0;aspect=fixed;shape=mxgraph.aws4.resourceIcon;resIcon=mxgraph.aws4.auto_scaling2;" vertex="1" parent="sBHPiRBSuybCHQU2eTQM-4">
          <mxGeometry x="271" y="71" width="78" height="78" as="geometry" />
        </mxCell>
        <mxCell id="sBHPiRBSuybCHQU2eTQM-8" value="08:30 UTC+0&lt;br&gt;Scale Out" style="sketch=0;points=[[0.5,0,0],[1,0.5,0],[0.5,1,0],[0,0.5,0],[0.145,0.145,0],[0.8555,0.145,0],[0.855,0.8555,0],[0.145,0.855,0]];verticalLabelPosition=bottom;html=1;verticalAlign=top;aspect=fixed;align=center;pointerEvents=1;shape=mxgraph.cisco19.rect;prIcon=clock;fillColor=#FAFAFA;strokeColor=#005073;" vertex="1" parent="1">
          <mxGeometry x="650" y="160" width="50" height="50" as="geometry" />
        </mxCell>
        <mxCell id="sBHPiRBSuybCHQU2eTQM-11" value="17:30 UTC+0&lt;br&gt;Scale In" style="sketch=0;points=[[0.5,0,0],[1,0.5,0],[0.5,1,0],[0,0.5,0],[0.145,0.145,0],[0.8555,0.145,0],[0.855,0.8555,0],[0.145,0.855,0]];verticalLabelPosition=top;html=1;verticalAlign=bottom;aspect=fixed;align=center;pointerEvents=1;shape=mxgraph.cisco19.rect;prIcon=clock;fillColor=#FAFAFA;strokeColor=#005073;labelPosition=center;" vertex="1" parent="1">
          <mxGeometry x="650" y="330" width="50" height="50" as="geometry" />
        </mxCell>
        <mxCell id="sBHPiRBSuybCHQU2eTQM-12" style="edgeStyle=orthogonalEdgeStyle;rounded=0;orthogonalLoop=1;jettySize=auto;html=1;entryX=0;entryY=0.5;entryDx=0;entryDy=0;entryPerimeter=0;" edge="1" parent="1" source="sBHPiRBSuybCHQU2eTQM-4" target="sBHPiRBSuybCHQU2eTQM-8">
          <mxGeometry relative="1" as="geometry" />
        </mxCell>
        <mxCell id="sBHPiRBSuybCHQU2eTQM-13" style="edgeStyle=orthogonalEdgeStyle;rounded=0;orthogonalLoop=1;jettySize=auto;html=1;entryX=0;entryY=0.5;entryDx=0;entryDy=0;entryPerimeter=0;" edge="1" parent="1" source="sBHPiRBSuybCHQU2eTQM-4" target="sBHPiRBSuybCHQU2eTQM-11">
          <mxGeometry relative="1" as="geometry" />
        </mxCell>
        <mxCell id="sBHPiRBSuybCHQU2eTQM-14" value="CPU Utilization&lt;br&gt;Scaling" style="pointerEvents=1;shadow=0;dashed=0;html=1;strokeColor=none;fillColor=#4495D1;labelPosition=center;verticalLabelPosition=bottom;verticalAlign=top;align=center;outlineConnect=0;shape=mxgraph.veeam.cpu;" vertex="1" parent="1">
          <mxGeometry x="30" y="247.6" width="44.8" height="44.8" as="geometry" />
        </mxCell>
      </root>
    </mxGraphModel>
  </diagram>
</mxfile>
